<?xml version="1.0" encoding="iso-8859-1"?>
<!-- Generator: Adobe Illustrator 19.0.0, SVG Export Plug-In . SVG Version: 6.00 Build 0)  -->
<svg version="1.1" id="Layer_1" xmlns="http://www.w3.org/2000/svg" xmlns:xlink="http://www.w3.org/1999/xlink" x="0px" y="0px"
	 viewBox="0 0 512 512" style="enable-background:new 0 0 512 512;" xml:space="preserve">
<rect y="108.99" style="fill:#90BC42;" width="512" height="342.131"/>
<rect x="35.369" y="143.681" style="fill:#666666;" width="441.265" height="265.57"/>
<path style="fill:#E6E6E6;" d="M436.167,132.94c8.991-5.78,14.953-15.866,14.953-27.35c0-17.95-14.551-32.5-32.5-32.5
	c-0.233,0-0.464,0.013-0.697,0.018c-1.69-16.361-15.517-29.122-32.325-29.122c-17.95,0-32.5,14.551-32.5,32.5
	s9.374,68.266,9.374,79.75c0,17.95,33.095,32.5,51.043,32.5c17.95,0,32.5-14.551,32.5-32.5
	C446.014,147.098,442.238,138.845,436.167,132.94z"/>
<path style="fill:#CCCCCC;" d="M75.276,132.94c-8.991-5.78-14.953-15.866-14.953-27.35c0-17.95,14.551-32.5,32.5-32.5
	c0.233,0,0.464,0.013,0.697,0.018c1.69-16.361,15.517-29.122,32.325-29.122c17.95,0,32.5,14.551,32.5,32.5
	s-9.374,68.266-9.374,79.75c0,17.95-33.095,32.5-51.043,32.5c-17.95,0-32.5-14.551-32.5-32.5
	C65.427,147.098,69.205,138.845,75.276,132.94z"/>
<path style="fill:#999999;" d="M312.413,311.35H199.595c-40.86,0-73.984,33.123-73.984,73.984v108.598h260.785V385.334
	C386.396,344.474,353.273,311.35,312.413,311.35z"/>
<path style="fill:#808080;" d="M245.18,311.35h-45.585c-40.86,0-73.984,33.123-73.984,73.984v108.598h45.585V385.334
	C171.196,344.474,204.319,311.35,245.18,311.35z"/>
<g>
	<path style="fill:#E0B394;" d="M131.682,210.239c-14.834-0.658-26.641-12.896-26.641-27.885c0-15.408,12.489-27.909,27.909-27.909
		c1.388,0,2.751,0.096,4.091,0.299"/>
	<path style="fill:#E0B394;" d="M380.289,210.239c14.834-0.658,26.653-12.896,26.653-27.885c0-15.408-12.501-27.909-27.921-27.909
		c-1.388,0-2.763,0.108-4.091,0.299"/>
</g>
<polygon style="fill:#666666;" points="330.168,283.438 330.168,363.79 297.869,367.379 307.439,399.678 256.004,463.079 
	204.568,399.678 214.138,367.379 181.839,363.79 181.839,283.438 "/>
<polygon style="fill:#CCCCCC;" points="293.081,314.939 256,421.406 218.919,314.939 "/>
<path style="fill:#F7CBA4;" d="M215.623,330.863l-49.105-35.677c-25.949-18.853-39.987-50.03-36.902-81.957l8.517-88.138
	c5.866-60.704,56.879-107.025,117.865-107.025l0,0c60.987,0,111.999,46.32,117.865,107.025l8.517,88.138
	c3.085,31.927-10.952,63.103-36.902,81.957l-49.105,35.677C272.298,348.353,239.697,348.353,215.623,330.863z"/>
<path style="fill:#E8BA97;" d="M160.173,230.598c-0.825,13.96,3.72,27.693,12.716,38.4l51.323,63.067
	c2.68,3.194,5.718,5.874,9.008,8.015c-6.173-2.153-12.106-5.24-17.597-9.223l-49.107-35.673
	c-25.947-18.853-39.979-50.028-36.893-81.956l8.505-88.141c5.814-60.112,55.889-106.12,116.097-106.994
	c-37.084,0.897-79.076,35.852-81.266,73.08L160.173,230.598z"/>
<rect x="303.264" y="443.943" style="fill:#666666;" width="56.224" height="23.925"/>
<g>
	<path style="fill:#E0B394;" d="M312.498,86.599c-0.819,0-1.65-0.211-2.408-0.653c-29.829-17.414-78.356-17.414-108.18,0
		c-2.282,1.333-5.213,0.562-6.545-1.72c-1.333-2.282-0.563-5.212,1.72-6.545c32.483-18.967,85.344-18.968,117.829,0
		c2.282,1.333,3.053,4.262,1.72,6.545C315.746,85.749,314.144,86.598,312.498,86.599z"/>
	<path style="fill:#E0B394;" d="M218.91,109.203c-2.048,0-3.943-1.324-4.573-3.385c-0.774-2.527,0.646-5.203,3.172-5.977
		c24.09-7.38,52.863-7.383,76.97-0.012c2.527,0.773,3.949,3.448,3.176,5.975c-0.773,2.527-3.446,3.95-5.975,3.177
		c-22.35-6.834-49.029-6.831-71.367,0.012C219.845,109.134,219.374,109.203,218.91,109.203z"/>
</g>
<path style="fill:#FFFFFF;" d="M268.561,327.304L256,372.958l-12.561-45.654c-1.908-6.937,2.168-14.108,9.105-16.017
	c6.937-1.908,14.108,2.168,16.017,9.105C269.202,322.722,269.152,325.13,268.561,327.304z"/>
<g>
	<path style="fill:#CCCCCC;" d="M105.278,236.388H68.194c-4.956,0-8.972-4.017-8.972-8.972s4.016-8.972,8.972-8.972h37.084
		c4.956,0,8.972,4.017,8.972,8.972S110.234,236.388,105.278,236.388z"/>
	<path style="fill:#CCCCCC;" d="M105.278,274.668H68.194c-4.956,0-8.972-4.017-8.972-8.972c0-4.955,4.016-8.972,8.972-8.972h37.084
		c4.956,0,8.972,4.017,8.972,8.972C114.25,270.651,110.234,274.668,105.278,274.668z"/>
	<path style="fill:#CCCCCC;" d="M122.026,312.949H68.194c-4.956,0-8.972-4.017-8.972-8.972c0-4.955,4.016-8.972,8.972-8.972h53.832
		c4.956,0,8.972,4.017,8.972,8.972C130.998,308.932,126.982,312.949,122.026,312.949z"/>
	<path style="fill:#CCCCCC;" d="M437.839,312.949h-46.654c-4.956,0-8.972-4.017-8.972-8.972c0-4.955,4.016-8.972,8.972-8.972h46.654
		c4.956,0,8.972,4.017,8.972,8.972C446.811,308.932,442.795,312.949,437.839,312.949z"/>
</g>
<g>
	<rect x="248.822" y="421.405" style="fill:#666666;" width="14.355" height="72.529"/>
</g>
<path style="fill:#F2F2F2;" d="M302.83,253.727c0,0-0.682,1.675-2.117,4.319c-0.347,0.682-0.754,1.4-1.208,2.177
	c-0.538,0.766-1.16,1.543-1.83,2.416c-0.67,0.873-1.436,1.759-2.249,2.739c-0.287,0.371-0.598,0.682-0.933,1.005
	c-0.12,0.12-0.251,0.239-0.383,0.359c-0.467,0.431-0.945,0.885-1.435,1.34c-0.981,0.921-2.046,1.83-3.158,2.787
	c-1.172,0.861-2.428,1.675-3.72,2.56c-0.646,0.443-1.316,0.873-1.998,1.304c-0.682,0.407-1.412,0.742-2.153,1.113
	c-1.459,0.742-2.979,1.459-4.546,2.177c-3.23,1.101-6.591,2.393-10.18,2.931c-3.541,0.825-7.237,0.957-10.922,1.136
	c-3.684-0.179-7.381-0.299-10.922-1.124c-3.589-0.538-6.95-1.83-10.18-2.931c-1.567-0.706-3.086-1.424-4.558-2.165
	c-0.73-0.371-1.459-0.706-2.153-1.113c-0.67-0.443-1.34-0.861-1.986-1.304c-1.292-0.885-2.56-1.711-3.732-2.56
	c-1.113-0.957-2.165-1.878-3.158-2.787c-0.49-0.467-0.957-0.909-1.424-1.352c-0.167-0.156-0.335-0.311-0.502-0.467
	c-0.287-0.287-0.562-0.562-0.801-0.885c-0.778-0.945-1.531-1.818-2.189-2.68c-0.646-0.873-1.28-1.639-1.806-2.404
	c-0.479-0.813-0.921-1.555-1.292-2.237c-1.495-2.727-2.117-4.354-2.117-4.354s1.77,0.538,4.498,1.639
	c0.694,0.263,1.412,0.586,2.213,0.909c0.849,0.251,1.723,0.574,2.656,0.885c0.945,0.311,1.89,0.694,2.895,1.053
	c0.993,0.383,2.117,0.634,3.23,0.969c1.113,0.323,2.225,0.718,3.385,1.065c1.208,0.263,2.416,0.574,3.661,0.873
	c0.622,0.144,1.232,0.323,1.854,0.49c0.634,0.144,1.292,0.227,1.938,0.359c1.304,0.227,2.608,0.49,3.912,0.79
	c2.716,0.251,5.395,0.849,8.194,0.957c2.763,0.359,5.587,0.263,8.386,0.431c2.811-0.167,5.634-0.06,8.398-0.419
	c2.799-0.096,5.479-0.706,8.194-0.957c1.304-0.287,2.608-0.55,3.912-0.778c0.646-0.132,1.304-0.215,1.938-0.359
	c0.622-0.179,1.244-0.347,1.854-0.49c1.244-0.299,2.452-0.622,3.661-0.873c1.172-0.347,2.285-0.742,3.397-1.065
	c1.101-0.335,2.249-0.598,3.206-0.969c0.981-0.335,1.902-0.706,2.835-0.993c0.921-0.311,1.782-0.622,2.632-0.873
	c0.837-0.359,1.579-0.706,2.285-0.981C301.095,254.229,302.83,253.727,302.83,253.727z"/>
<g>
	<path style="fill:#4D4D4D;" d="M294.492,266.383c-0.12,0.12-0.251,0.239-0.383,0.359c-0.467,0.431-0.945,0.885-1.435,1.34
		c-0.981,0.921-2.046,1.83-3.158,2.787c-1.172,0.861-2.428,1.675-3.72,2.56c-0.646,0.443-1.316,0.873-1.998,1.304
		c-0.682,0.407-1.412,0.742-2.153,1.113c-1.459,0.742-2.979,1.459-4.546,2.177c-3.23,1.101-6.591,2.393-10.18,2.931
		c-3.541,0.825-7.237,0.957-10.922,1.136c-3.684-0.179-7.381-0.299-10.922-1.124c-3.589-0.538-6.95-1.83-10.18-2.931
		c-1.567-0.706-3.086-1.424-4.558-2.165c-0.73-0.371-1.459-0.706-2.153-1.113c-0.67-0.443-1.34-0.861-1.986-1.304
		c-1.292-0.885-2.56-1.711-3.732-2.56c-1.113-0.957-2.165-1.878-3.158-2.787c-0.49-0.467-0.957-0.909-1.424-1.352
		c-0.167-0.156-0.335-0.311-0.502-0.467c0.383,0.132,0.766,0.263,1.16,0.395c0.945,0.311,1.89,0.682,2.895,1.041
		c0.993,0.395,2.117,0.646,3.23,0.981c1.113,0.323,2.225,0.706,3.385,1.065c1.208,0.251,2.416,0.574,3.661,0.873
		c0.622,0.144,1.232,0.311,1.854,0.479c0.634,0.144,1.292,0.227,1.938,0.359c1.304,0.227,2.608,0.502,3.912,0.79
		c2.716,0.263,5.395,0.861,8.194,0.957c2.763,0.371,5.587,0.263,8.386,0.443c2.811-0.167,5.634-0.06,8.398-0.431
		c2.799-0.096,5.479-0.694,8.194-0.945c1.304-0.287,2.608-0.562,3.912-0.79c0.646-0.132,1.304-0.215,1.938-0.359
		c0.622-0.167,1.244-0.335,1.854-0.478c1.244-0.299,2.452-0.622,3.661-0.873c1.172-0.359,2.285-0.754,3.397-1.065
		c1.101-0.335,2.249-0.61,3.206-0.969c0.981-0.347,1.902-0.706,2.835-1.005C293.762,266.634,294.133,266.503,294.492,266.383z"/>
	<path style="fill:#4D4D4D;" d="M202.746,213.654c-4.955,0-8.972-4.017-8.972-8.972v-14.35c0-4.955,4.017-8.972,8.972-8.972
		s8.972,4.017,8.972,8.972v14.35C211.718,209.637,207.701,213.654,202.746,213.654z"/>
</g>
<g>
	<path style="fill:#666666;" d="M288.742,155.64c0,0,0.024-0.238,0.104-0.647c0.092-0.396,0.185-1.022,0.386-1.73
		c0.09-0.366,0.206-0.748,0.339-1.168c0.173-0.426,0.407-0.854,0.654-1.34c0.245-0.488,0.555-0.97,0.88-1.512
		c0.328-0.55,0.719-0.968,1.12-1.499c0.407-0.511,0.865-1.005,1.343-1.536c0.506-0.48,1.055-0.952,1.639-1.427
		c1.142-1.006,2.538-1.733,3.993-2.542c1.505-0.636,3.102-1.327,4.813-1.646c1.694-0.44,3.47-0.544,5.242-0.627
		c1.772,0.081,3.549,0.176,5.244,0.614c1.712,0.316,3.31,1.01,4.816,1.641c1.456,0.807,2.853,1.534,3.997,2.541
		c0.583,0.476,1.133,0.95,1.64,1.427c0.479,0.532,0.934,1.031,1.343,1.538c0.395,0.529,0.805,0.963,1.105,1.492
		c0.301,0.526,0.593,0.998,0.83,1.475c0.236,0.479,0.464,0.9,0.636,1.324c0.157,0.443,0.296,0.843,0.398,1.223
		c0.227,0.733,0.322,1.364,0.409,1.759c0.077,0.408,0.093,0.64,0.093,0.64s-0.248-0.006-0.666-0.047
		c-0.407-0.053-1.038-0.079-1.736-0.181c-0.361-0.037-0.73-0.104-1.135-0.158c-0.432-0.02-0.858-0.08-1.321-0.116
		c-0.908-0.096-1.855-0.238-2.897-0.279c-0.512-0.034-1.008-0.108-1.528-0.151c-0.537-0.007-1.067-0.035-1.593-0.074
		c-1.031-0.134-2.152-0.055-3.193-0.185c-1.095,0.039-2.142-0.094-3.228-0.061c-1.067-0.08-2.146,0.005-3.217-0.071
		c-1.071,0.073-2.15-0.02-3.219,0.057c-1.086-0.038-2.134,0.1-3.231,0.056c-1.042,0.129-2.165,0.049-3.196,0.184
		c-0.526,0.039-1.056,0.068-1.595,0.074c-0.519,0.043-1.013,0.122-1.528,0.153c-1.062,0.057-1.945,0.158-2.832,0.234
		c-0.465,0.036-0.901,0.069-1.304,0.099c-0.429,0.078-0.822,0.164-1.195,0.213c-0.724,0.128-1.357,0.158-1.759,0.209
		C288.981,155.64,288.742,155.64,288.742,155.64z"/>
	<path style="fill:#666666;" d="M182.234,155.64c0,0,0.024-0.238,0.104-0.647c0.092-0.396,0.185-1.022,0.386-1.73
		c0.09-0.366,0.206-0.748,0.339-1.168c0.173-0.426,0.407-0.854,0.654-1.34c0.245-0.488,0.555-0.97,0.88-1.512
		c0.328-0.55,0.719-0.968,1.12-1.499c0.407-0.511,0.865-1.005,1.343-1.536c0.506-0.48,1.055-0.952,1.639-1.427
		c1.142-1.006,2.538-1.733,3.993-2.542c1.505-0.636,3.102-1.327,4.813-1.646c1.694-0.44,3.47-0.544,5.242-0.627
		c1.772,0.081,3.549,0.176,5.244,0.614c1.712,0.316,3.31,1.01,4.816,1.641c1.456,0.807,2.853,1.534,3.997,2.541
		c0.583,0.476,1.133,0.95,1.64,1.427c0.479,0.532,0.934,1.031,1.343,1.538c0.395,0.529,0.805,0.963,1.105,1.492
		c0.301,0.526,0.593,0.998,0.83,1.475c0.236,0.479,0.464,0.9,0.636,1.324c0.157,0.443,0.295,0.843,0.398,1.223
		c0.227,0.733,0.322,1.364,0.409,1.759c0.077,0.408,0.093,0.64,0.093,0.64s-0.248-0.006-0.666-0.047
		c-0.407-0.053-1.038-0.079-1.736-0.181c-0.361-0.037-0.73-0.104-1.135-0.158c-0.432-0.02-0.858-0.08-1.321-0.116
		c-0.908-0.096-1.855-0.238-2.897-0.279c-0.512-0.034-1.008-0.108-1.528-0.151c-0.537-0.007-1.067-0.035-1.593-0.074
		c-1.031-0.134-2.152-0.055-3.193-0.185c-1.095,0.039-2.143-0.094-3.228-0.061c-1.067-0.08-2.146,0.005-3.217-0.071
		c-1.071,0.073-2.15-0.02-3.219,0.057c-1.086-0.038-2.134,0.1-3.231,0.056c-1.042,0.129-2.165,0.049-3.196,0.184
		c-0.526,0.039-1.056,0.068-1.595,0.074c-0.519,0.043-1.013,0.122-1.528,0.153c-1.062,0.057-1.945,0.158-2.832,0.234
		c-0.465,0.036-0.901,0.069-1.304,0.099c-0.429,0.078-0.822,0.164-1.195,0.213c-0.724,0.128-1.357,0.158-1.759,0.209
		C182.473,155.64,182.234,155.64,182.234,155.64z"/>
</g>
<path style="fill:#4D4D4D;" d="M309.254,213.654c-4.955,0-8.972-4.017-8.972-8.972v-14.35c0-4.955,4.017-8.972,8.972-8.972
	s8.972,4.017,8.972,8.972v14.35C318.226,209.637,314.209,213.654,309.254,213.654z"/>
<path style="fill:#E8BA97;" d="M269.757,177.173v42.467c0,7.597-6.16,13.757-13.757,13.757l0,0c-7.597,0-13.757-6.16-13.757-13.757
	v-42.467"/>
<g>
</g>
<g>
</g>
<g>
</g>
<g>
</g>
<g>
</g>
<g>
</g>
<g>
</g>
<g>
</g>
<g>
</g>
<g>
</g>
<g>
</g>
<g>
</g>
<g>
</g>
<g>
</g>
<g>
</g>
</svg>
